<svg xmlns="http://www.w3.org/2000/svg" width="298.667" height="459.84" viewBox="0 0 298.667 459.84">
  <g id="Group_140" data-name="Group 140" transform="translate(8590 -6584)">
    <g id="Group_139" data-name="Group 139" transform="translate(-8670.587 6584)">
      <g id="Group_138" data-name="Group 138">
        <path id="Path_34" data-name="Path 34" d="M317.92,62.4l44.8-44.8L345.12,0,295.947,49.173c-20.053-9.92-42.24-16-66.027-16s-45.973,6.08-66.027,16L114.72,0,97.12,17.6l44.8,44.8c-37.013,27.093-61.333,70.613-61.333,120.107V203.84H379.254V182.507C379.253,133.013,354.933,89.493,317.92,62.4Zm-152,98.773a21.333,21.333,0,1,1,21.333-21.333A21.327,21.327,0,0,1,165.92,161.173Zm128,0a21.333,21.333,0,1,1,21.333-21.333A21.327,21.327,0,0,1,293.92,161.173Z" fill="#854fee"/>
        <path id="Path_35" data-name="Path 35" d="M80.587,310.507a149.333,149.333,0,0,0,298.666,0V225.174H80.587Z" fill="#854fee"/>
        <path id="Path_36" data-name="Path 36" d="M374.2,328.494c-25.209,78.284-108.8,87.571-108.8,87.571" transform="translate(-19.902 25.21)" fill="none" stroke="#fff" stroke-linecap="round" stroke-width="5"/>
      </g>
    </g>
  </g>
</svg>
